[Header]
FileType HTR
DataType HTRS
FileVersion 1
NumSegments 64
NumFrames 3
DataFrameRate 30
EulerRotationOrder ZYX
CalibrationUnits mm
RotationUnits Degrees
GlobalAxisofGravity Y
BoneLengthAxis Y
ScaleFactor 1.0
[SegmentNames&Hierarchy]
Hips	GLOBAL
Spine	Hips
Spine1	Spine
Spine2	Spine1
Neck	Spine2
Head	Neck
LeftEye	Head
RightEye	Head
LeftShoulder	Spine2
LeftArm	LeftShoulder
LeftForeArm	LeftArm
LeftHand	LeftForeArm
LeftHandThumb1	LeftHand
LeftHandThumb2	LeftHandThumb1
LeftHandThumb3	LeftHandThumb2
LeftHandThumb4	LeftHandThumb3
LeftHandIndex1	LeftHand
LeftHandIndex2	LeftHandIndex1
LeftHandIndex3	LeftHandIndex2
LeftHandIndex4	LeftHandIndex3
LeftHandMiddle1	LeftHand
LeftHandMiddle2	LeftHandMiddle1
LeftHandMiddle3	LeftHandMiddle2
LeftHandMiddle4	LeftHandMiddle3
LeftHandRing1	LeftHand
LeftHandRing2	LeftHandRing1
LeftHandRing3	LeftHandRing2
LeftHandRing4	LeftHandRing3
LeftHandPinky1	LeftHand
LeftHandPinky2	LeftHandPinky1
LeftHandPinky3	LeftHandPinky2
LeftHandPinky4	LeftHandPinky3
RightShoulder	Spine2
RightArm	RightShoulder
RightForeArm	RightArm
RightHand	RightForeArm
RightHandPinky1	RightHand
RightHandPinky2	RightHandPinky1
RightHandPinky3	RightHandPinky2
RightHandPinky4	RightHandPinky3
RightHandRing1	RightHand
RightHandRing2	RightHandRing1
RightHandRing3	RightHandRing2
RightHandRing4	RightHandRing3
RightHandMiddle1	RightHand
RightHandMiddle2	RightHandMiddle1
RightHandMiddle3	RightHandMiddle2
RightHandMiddle4	RightHandMiddle3
RightHandIndex1	RightHand
RightHandIndex2	RightHandIndex1
RightHandIndex3	RightHandIndex2
RightHandIndex4	RightHandIndex3
RightHandThumb1	RightHand
RightHandThumb2	RightHandThumb1
RightHandThumb3	RightHandThumb2
RightHandThumb4	RightHandThumb3
LeftUpLeg	Hips
LeftLeg	LeftUpLeg
LeftFoot	LeftLeg
LeftToeBase	LeftFoot
RightUpLeg	Hips
RightLeg	RightUpLeg
RightFoot	RightLeg
RightToeBase	RightFoot
[BasePosition]
Hips	0	0	0	0	0	0	1
Spine	0	0	0	0	0	0	1
Spine1	0	0	0	0	0	0	1
Spine2	0	0	0	0	0	0	1
Neck	0	0	0	0	0	0	1
Head	0	0	0	0	0	0	1
LeftEye	0	0	0	0	0	0	1
RightEye	0	0	0	0	0	0	1
LeftShoulder	0	0	0	0	0	0	1
LeftArm	0	0	0	0	0	0	1
LeftForeArm	0	0	0	0	0	0	1
LeftHand	0	0	0	0	0	0	1
LeftHandThumb1	0	0	0	0	0	0	1
LeftHandThumb2	0	0	0	0	0	0	1
LeftHandThumb3	0	0	0	0	0	0	1
LeftHandThumb4	0	0	0	0	0	0	1
LeftHandIndex1	0	0	0	0	0	0	1
LeftHandIndex2	0	0	0	0	0	0	1
LeftHandIndex3	0	0	0	0	0	0	1
LeftHandIndex4	0	0	0	0	0	0	1
LeftHandMiddle1	0	0	0	0	0	0	1
LeftHandMiddle2	0	0	0	0	0	0	1
LeftHandMiddle3	0	0	0	0	0	0	1
LeftHandMiddle4	0	0	0	0	0	0	1
LeftHandRing1	0	0	0	0	0	0	1
LeftHandRing2	0	0	0	0	0	0	1
LeftHandRing3	0	0	0	0	0	0	1
LeftHandRing4	0	0	0	0	0	0	1
LeftHandPinky1	0	0	0	0	0	0	1
LeftHandPinky2	0	0	0	0	0	0	1
LeftHandPinky3	0	0	0	0	0	0	1
LeftHandPinky4	0	0	0	0	0	0	1
RightShoulder	0	0	0	0	0	0	1
RightArm	0	0	0	0	0	0	1
RightForeArm	0	0	0	0	0	0	1
RightHand	0	0	0	0	0	0	1
RightHandPinky1	0	0	0	0	0	0	1
RightHandPinky2	0	0	0	0	0	0	1
RightHandPinky3	0	0	0	0	0	0	1
RightHandPinky4	0	0	0	0	0	0	1
RightHandRing1	0	0	0	0	0	0	1
RightHandRing2	0	0	0	0	0	0	1
RightHandRing3	0	0	0	0	0	0	1
RightHandRing4	0	0	0	0	0	0	1
RightHandMiddle1	0	0	0	0	0	0	1
RightHandMiddle2	0	0	0	0	0	0	1
RightHandMiddle3	0	0	0	0	0	0	1
RightHandMiddle4	0	0	0	0	0	0	1
RightHandIndex1	0	0	0	0	0	0	1
RightHandIndex2	0	0	0	0	0	0	1
RightHandIndex3	0	0	0	0	0	0	1
RightHandIndex4	0	0	0	0	0	0	1
RightHandThumb1	0	0	0	0	0	0	1
RightHandThumb2	0	0	0	0	0	0	1
RightHandThumb3	0	0	0	0	0	0	1
RightHandThumb4	0	0	0	0	0	0	1
LeftUpLeg	0	0	0	0	0	0	1
LeftLeg	0	0	0	0	0	0	1
LeftFoot	0	0	0	0	0	0	1
LeftToeBase	0	0	0	0	0	0	1
RightUpLeg	0	0	0	0	0	0	1
RightLeg	0	0	0	0	0	0	1
RightFoot	0	0	0	0	0	0	1
RightToeBase	0	0	0	0	0	0	1
[Hips]
6	-19.63605499	1029.848633	-31.18605042	-2.392871141	12.1949358	-2.598957539	1.0
7	-26.58023071	1030.061157	-40.8741951	-2.552181721	14.87861729	-2.539906025	1.0
8	-33.14426041	1030.120361	-50.21829605	-2.674791336	17.37171745	-2.453724623	1.0
[Spine]
6	0	101.8159943	1.315000057	4.057267189	2.412454128	2.765284061	1.0
7	0	101.8159943	1.315000057	4.065478325	2.668651104	2.286268234	1.0
8	0	101.8159943	1.315000057	3.987624407	2.854922056	1.832606077	1.0
[Spine1]
6	0	100.8349991	-10.00800037	1.854099035	1.127766132	2.612916708	1.0
7	0	100.8349991	-10.00800037	1.900836587	1.36182034	2.950634718	1.0
8	0	100.8349991	-10.00800037	1.872771382	1.530445695	3.324074507	1.0
[Spine2]
6	0	91	-13.73399925	1.7978369	1.096027493	1.703881979	1.0
7	0	91	-13.73399925	1.832911968	1.298892498	1.707799792	1.0
8	0	91	-13.73399925	1.792799115	1.432141542	1.719533563	1.0
[Neck]
6	0	166.7169952	-25.16200066	7.249415398	7.095169544	-1.356906652	1.0
7	0	166.7169952	-25.16200066	7.671576023	8.269668579	-1.420440674	1.0
8	0	166.7169952	-25.16200066	7.90968132	8.955775261	-1.42422998	1.0
[Head]
6	0	96.17900085	16.84999847	-5.406569958	18.94277	-6.137550831	1.0
7	0	96.17900085	16.84999847	-4.24966526	22.247015	-6.801903248	1.0
8	0	96.17900085	16.84999847	-3.488643646	24.60492516	-7.399356842	1.0
[LeftEye]
6	30.6760006	64.09500122	92.83599854	0	0	0	1.0
7	30.6760006	64.09500122	92.83599854	0	0	0	1.0
8	30.6760006	64.09500122	92.83599854	0	0	0	1.0
[RightEye]
6	-30.6760006	64.09500122	92.83499908	0	0	0	1.0
7	-30.6760006	64.09500122	92.83499908	0	0	0	1.0
8	-30.6760006	64.09500122	92.83499908	0	0	0	1.0
[LeftShoulder]
6	45.70400238	109.4599991	-26.28000069	5.185788155	-17.05387306	-15.28515816	1.0
7	45.70400238	109.4599991	-26.28000069	5.215037346	-16.91484261	-15.73181343	1.0
8	45.70400238	109.4599991	-26.28000069	5.24715519	-16.78489113	-16.22631073	1.0
[LeftArm]
6	105.923996	-5.24600029	-22.32099915	16.33064842	-10.70928478	-64.24914551	1.0
7	105.923996	-5.24600029	-22.32099915	15.03422642	-10.30636978	-62.48705292	1.0
8	105.923996	-5.24600029	-22.32099915	14.02242184	-9.12061882	-60.72154236	1.0
[LeftForeArm]
6	278.414978	-0.0009999999311	0	-3.818077403e-06	-6.288735867	-0.000193152533	1.0
7	278.414978	-0.0009999999311	0	-1.770910558e-06	-9.230047226	-0.0001881625794	1.0
8	278.414978	-0.0009999999311	0	8.641899854e-07	-12.5369854	-0.0002037519589	1.0
[LeftHand]
6	283.2879944	0	0	-23.7460022	-2.380260468	6.480314732	1.0
7	283.2879944	0	0	-22.5399189	-2.26102376	8.802629471	1.0
8	283.2879944	0	0	-21.96758652	-2.139834166	10.85113811	1.0
[LeftHandThumb1]
6	24.6609993	-15.75	26.8239994	-0.4889881611	2.201389551	4.818526268	1.0
7	24.6609993	-15.75	26.8239994	-0.4889881611	2.201389551	4.818526268	1.0
8	24.6609993	-15.75	26.8239994	-0.4889881611	2.201389551	4.818526268	1.0
[LeftHandThumb2]
6	32.29800034	-18.64699936	18.64699936	21.51610565	20.15087318	23.87856483	1.0
7	32.29800034	-18.64699936	18.64699936	21.47481346	20.01717949	23.81894112	1.0
8	32.29800034	-18.64699936	18.64699936	21.36680984	19.79315186	23.70571899	1.0
[LeftHandThumb3]
6	26.52600098	-15.31499958	15.31499958	-12.7131176	4.286295414	8.466742516	1.0
7	26.52600098	-15.31499958	15.31499958	-12.43254471	4.036614895	8.606273651	1.0
8	26.52600098	-15.31499958	15.31499958	-12.17682648	3.842002869	8.709973335	1.0
[LeftHandThumb4]
6	19.54599953	-11.28499985	11.28499985	0	0	0	1.0
7	19.54599953	-11.28499985	11.28499985	0	0	0	1.0
8	19.54599953	-11.28499985	11.28499985	0	0	0	1.0
[LeftHandIndex1]
6	91.09299469	-5.170999527	22.60099792	0.1878387779	-0.58435601	-8.902597427	1.0
7	91.09299469	-5.170999527	22.60099792	0.1976176649	-0.5237845182	-9.078875542	1.0
8	91.09299469	-5.170999527	22.60099792	0.206474036	-0.4791738093	-9.193430901	1.0
[LeftHandIndex2]
6	36.76399994	0	0	-0.2673248053	1.74715662	-17.39689445	1.0
7	36.76399994	0	0	-0.2673275173	1.747161627	-17.39689827	1.0
8	36.76399994	0	0	-0.2673195004	1.74716258	-17.3968811	1.0
[LeftHandIndex3]
6	28.83100128	0	0	-0.05771984905	0.8193989992	-8.058785439	1.0
7	28.83100128	0	0	-0.05772418529	0.8193978071	-8.058796883	1.0
8	28.83100128	0	0	-0.0577262193	0.8193985224	-8.058796883	1.0
[LeftHandIndex4]
6	23.92700005	0	0	0	0	0	1.0
7	23.92700005	0	0	0	0	0	1.0
8	23.92700005	0	0	0	0	0	1.0
[LeftHandMiddle1]
6	95.33399963	0	0	-0.8905300498	2.958880424	-17.11323357	1.0
7	95.33399963	0	0	-0.9005435705	3.054358959	-17.25507927	1.0
8	95.33399963	0	0	-0.9075256586	3.15351963	-17.35321045	1.0
[LeftHandMiddle2]
6	36.98199844	0	0	-0.2717500627	1.761219621	-17.54153061	1.0
7	36.98199844	0	0	-0.271609515	1.760779738	-17.53695107	1.0
8	36.98199844	0	0	-0.2712961435	1.759776354	-17.5266819	1.0
[LeftHandMiddle3]
6	29.50900078	0	0	-0.3035462499	1.858762383	-18.54810905	1.0
7	29.50900078	0	0	-0.3033931255	1.858296514	-18.54332352	1.0
8	29.50900078	0	0	-0.3030492961	1.85728693	-18.53285217	1.0
[LeftHandMiddle4]
6	28.3390007	0	0	0	0	0	1.0
7	28.3390007	0	0	0	0	0	1.0
8	28.3390007	0	0	0	0	0	1.0
[LeftHandRing1]
6	91.04499817	-0.4390000105	-18.65100098	-1.260749102	3.762811661	-22.15744591	1.0
7	91.04499817	-0.4390000105	-18.65100098	-1.271679163	3.788187504	-22.29922295	1.0
8	91.04499817	-0.4390000105	-18.65100098	-1.278155923	3.801824093	-22.38312531	1.0
[LeftHandRing2]
6	31.54000092	0	0	-0.3877318203	2.092853308	-20.98942375	1.0
7	31.54000092	0	0	-0.3876583278	2.092670202	-20.98744774	1.0
8	31.54000092	0	0	-0.3875122666	2.092287779	-20.98347473	1.0
[LeftHandRing3]
6	29.37700081	0	0	-0.2841798365	1.800049067	-17.94150162	1.0
7	29.37700081	0	0	-0.2841147482	1.799843788	-17.93943214	1.0
8	29.37700081	0	0	-0.2839883566	1.799456716	-17.93537521	1.0
[LeftHandRing4]
6	26.47500038	0	0	0	0	0	1.0
7	26.47500038	0	0	0	0	0	1.0
8	26.47500038	0	0	0	0	0	1.0
[LeftHandPinky1]
6	80.77799988	-4.887000084	-38.06099701	-1.717527747	5.785854816	-27.78919792	1.0
7	80.77799988	-4.887000084	-38.06099701	-1.716965318	5.874457836	-27.84166527	1.0
8	80.77799988	-4.887000084	-38.06099701	-1.713646412	5.946933746	-27.83864975	1.0
[LeftHandPinky2]
6	36	0	0	-0.2682335377	1.750061631	-17.42670059	1.0
7	36	0	0	-0.2682347298	1.750058889	-17.42671394	1.0
8	36	0	0	-0.2682695985	1.750160098	-17.42778397	1.0
[LeftHandPinky3]
6	21.14200211	0	0	-0.2414998412	1.662531853	-16.52887917	1.0
7	21.14200211	0	0	-0.2415001839	1.662529826	-16.52887154	1.0
8	21.14200211	0	0	-0.241527006	1.662632585	-16.52990723	1.0
[LeftHandPinky4]
6	19.75699997	0	0	0	0	0	1.0
7	19.75699997	0	0	0	0	0	1.0
8	19.75699997	0	0	0	0	0	1.0
[RightShoulder]
6	-45.70000076	109.4620056	0	5.113294601	14.42965221	14.75967026	1.0
7	-45.70000076	109.4620056	0	5.10387373	14.38249779	14.80346203	1.0
8	-45.70000076	109.4620056	0	5.087182045	14.30341339	14.86970997	1.0
[RightArm]
6	-105.9280014	-5.248000145	-22.32099915	29.86393929	-1.47197628	58.84799957	1.0
7	-105.9280014	-5.248000145	-22.32099915	29.8264637	-2.343626499	57.73901749	1.0
8	-105.9280014	-5.248000145	-22.32099915	29.76703453	-3.254119873	56.52817154	1.0
[RightForeArm]
6	-278.414978	0	0	-2.967660521e-06	9.175620079	-6.481964192e-06	1.0
7	-278.414978	0	0	-9.08979473e-06	9.734582901	-1.23489599e-05	1.0
8	-278.414978	0	0	6.417705549e-07	10.43218994	-5.918523584e-06	1.0
[RightHand]
6	-283.2879944	0	0.0009999999311	-22.63323021	-1.5108881	5.932986736	1.0
7	-283.2879944	0	0.0009999999311	-23.19957352	-2.9825418	5.825810909	1.0
8	-283.2879944	0	0.0009999999311	-23.77898788	-4.400671959	5.833674431	1.0
[RightHandPinky1]
6	-80.76699829	-4.885000229	-38.06000137	-1.606133819	-4.289523602	26.85806465	1.0
7	-80.76699829	-4.885000229	-38.06000137	-1.631839395	-4.191444874	26.9642601	1.0
8	-80.76699829	-4.885000229	-38.06000137	-1.662662268	-4.091320992	27.1276989	1.0
[RightHandPinky2]
6	-36	0	0.0009999999311	-0.21706976	-1.402507067	17.61446381	1.0
7	-36	0	0.0009999999311	-0.2175703794	-1.404095173	17.63532257	1.0
8	-36	0	0.0009999999311	-0.2167811841	-1.401622534	17.60305214	1.0
[RightHandPinky3]
6	-21.14200211	0	0	-0.1957930028	-1.333605051	16.70401764	1.0
7	-21.14200211	0	0	-0.196228534	-1.33504343	16.72252274	1.0
8	-21.14200211	0	0	-0.195419699	-1.33234787	16.68783379	1.0
[RightHandPinky4]
6	-19.75699997	0	0	0	0	0	1.0
7	-19.75699997	0	0	0	0	0	1.0
8	-19.75699997	0	0	0	0	0	1.0
[RightHandRing1]
6	-91.03599548	-0.4390000105	-18.65100098	-1.06482029	-2.809150934	20.77594948	1.0
7	-91.03599548	-0.4390000105	-18.65100098	-1.069729209	-2.774168491	20.85088158	1.0
8	-91.03599548	-0.4390000105	-18.65100098	-1.077160478	-2.725340366	20.9637146	1.0
[RightHandRing2]
6	-31.54000092	0	0	-0.3066589832	-1.658669353	20.9481926	1.0
7	-31.54000092	0	0	-0.3066770136	-1.658702612	20.94867516	1.0
8	-31.54000092	0	0	-0.3065558374	-1.658391118	20.94458771	1.0
[RightHandRing3]
6	-29.37700081	0	0	-0.2245255858	-1.425799131	17.89684486	1.0
7	-29.37700081	0	0	-0.2245352864	-1.425821543	17.89735794	1.0
8	-29.37700081	0	0	-0.22443524	-1.425510764	17.89330482	1.0
[RightHandRing4]
6	-26.47500038	0	0	0	0	0	1.0
7	-26.47500038	0	0	0	0	0	1.0
8	-26.47500038	0	0	0	0	0	1.0
[RightHandMiddle1]
6	-95.32500458	0	0	-0.7175284624	-2.147670031	15.27869034	1.0
7	-95.32500458	0	0	-0.721044302	-2.159759998	15.33719158	1.0
8	-95.32500458	0	0	-0.726973176	-2.147824287	15.43627453	1.0
[RightHandMiddle2]
6	-36.98199844	0	0	-0.214123711	-1.393204927	17.4744339	1.0
7	-36.98199844	0	0	-0.2148649246	-1.395561099	17.50472832	1.0
8	-36.98199844	0	0	-0.2155755311	-1.397805691	17.53380585	1.0
[RightHandMiddle3]
6	-29.50900078	0	0	-0.2393506318	-1.472927928	18.48359489	1.0
7	-29.50900078	0	0	-0.2401269823	-1.475265622	18.51383781	1.0
8	-29.50900078	0	0	-0.2408789545	-1.477506161	18.54302597	1.0
[RightHandMiddle4]
6	-28.3390007	0	0.0009999999311	0	0	0	1.0
7	-28.3390007	0	0.0009999999311	0	0	0	1.0
8	-28.3390007	0	0.0009999999311	0	0	0	1.0
[RightHandIndex1]
6	-91.08300018	-5.167999744	22.60099792	0.1595459878	1.25057292	7.146873951	1.0
7	-91.08300018	-5.167999744	22.60099792	0.1440171897	1.26535368	7.225669861	1.0
8	-91.08300018	-5.167999744	22.60099792	0.1164611876	1.294822097	7.346372128	1.0
[RightHandIndex2]
6	-36.76399994	0	0	-0.2125625759	-1.388226748	17.40976143	1.0
7	-36.76399994	0	0	-0.2130604386	-1.389837742	17.43074608	1.0
8	-36.76399994	0	0	-0.2130643427	-1.38984108	17.43070602	1.0
[RightHandIndex3]
6	-28.83100128	0	0	-0.04578160495	-0.6502835155	8.055630684	1.0
7	-28.83100128	0	0	-0.04602874815	-0.6519582868	8.076546669	1.0
8	-28.83100128	0	0	-0.04602724314	-0.6519621015	8.076547623	1.0
[RightHandIndex4]
6	-23.92700005	0	0	0	0	0	1.0
7	-23.92700005	0	0	0	0	0	1.0
8	-23.92700005	0	0	0	0	0	1.0
[RightHandThumb1]
6	-24.64799881	-15.72700024	26.82600021	-1.658465981	-0.2891423702	-4.221325874	1.0
7	-24.64799881	-15.72700024	26.82600021	-1.658465981	-0.2891423702	-4.221325874	1.0
8	-24.64799881	-15.72700024	26.82600021	-1.658465981	-0.2891423702	-4.221325874	1.0
[RightHandThumb2]
6	-32.29800034	-18.64699936	18.64699936	22.46349144	-24.14180374	-24.26365089	1.0
7	-32.29800034	-18.64699936	18.64699936	22.43395805	-24.1304512	-24.24136734	1.0
8	-32.29800034	-18.64699936	18.64699936	22.28654289	-23.95067406	-24.16617012	1.0
[RightHandThumb3]
6	-26.52600098	-15.31399918	15.31399918	-14.49319363	-6.731523037	-11.36925411	1.0
7	-26.52600098	-15.31399918	15.31399918	-14.49323845	-6.73142767	-11.36924362	1.0
8	-26.52600098	-15.31399918	15.31399918	-14.4932003	-6.731534481	-11.36925602	1.0
[RightHandThumb4]
6	-19.54599953	-11.28499985	11.28499985	0	0	0	1.0
7	-19.54599953	-11.28499985	11.28499985	0	0	0	1.0
8	-19.54599953	-11.28499985	11.28499985	0	0	0	1.0
[LeftUpLeg]
6	82.07800293	-67.51699829	-15.99599934	-18.92722702	36.32172775	7.580845833	1.0
7	82.07800293	-67.51699829	-15.99599934	-17.81228065	36.3404007	9.326741219	1.0
8	82.07800293	-67.51699829	-15.99599934	-16.35132217	35.84883499	10.51921082	1.0
[LeftLeg]
6	0	-443.7049866	2.845999956	24.82507133	1.342213869	-1.422057271	1.0
7	0	-443.7049866	2.845999956	26.04296112	4.534396172	-1.06250906	1.0
8	0	-443.7049866	2.845999956	27.44383621	6.385211945	-1.158766031	1.0
[LeftFoot]
6	0	-444.2789917	-29.8219986	4.269005299	7.245540619	-8.157132149	1.0
7	0	-444.2789917	-29.8219986	4.534344196	21.35954094	-4.698771954	1.0
8	0	-444.2789917	-29.8219986	2.480792284	27.72359467	-3.317815542	1.0
[LeftToeBase]
6	0	-87.28699493	107.1060028	-4.098078728	2.145346843e-05	-3.924239081e-06	1.0
7	0	-87.28699493	107.1060028	-4.516260147	-3.378457768e-05	-0.0005572813679	1.0
8	0	-87.28699493	107.1060028	-5.233507156	7.114184882e-06	7.270510309e-07	1.0
[RightUpLeg]
6	-82.07800293	-67.51699829	-15.99599934	-6.388110638	-28.85167694	4.378283501	1.0
7	-82.07800293	-67.51699829	-15.99599934	-6.879459858	-31.56147003	4.822065353	1.0
8	-82.07800293	-67.51699829	-15.99599934	-7.479095936	-34.04637527	5.242298126	1.0
[RightLeg]
6	0	-443.7049866	2.861999989	13.30526733	-8.933849335	-5.423713207	1.0
7	0	-443.7049866	2.861999989	13.12701225	-8.937626839	-5.395103455	1.0
8	0	-443.7049866	2.861999989	13.0581398	-8.954158783	-5.389100075	1.0
[RightFoot]
6	0	-444.2770081	-29.83799934	-5.826956749	-1.438150287	1.90375495	1.0
7	0	-444.2770081	-29.83799934	-5.599185467	-1.471474767	1.34080708	1.0
8	0	-444.2770081	-29.83799934	-5.408128262	-1.5013237	0.8223973513	1.0
[RightToeBase]
6	0	-87.28699493	107.1060028	-7.282878876	-1.707962292e-05	2.186916845e-06	1.0
7	0	-87.28699493	107.1060028	-7.282876015	5.078411959e-06	-2.214109998e-07	1.0
8	0	-87.28699493	107.1060028	-7.282876492	9.452986887e-06	-9.878021956e-08	1.0
[EndOfFile]
